<svg xmlns="http://www.w3.org/2000/svg" viewBox="0 0 128 128" width="128" height="128">
  <defs>
    <linearGradient id="bg" x1="0%" y1="0%" x2="100%" y2="100%">
      <stop offset="0%" stop-color="#34d399"/>
      <stop offset="100%" stop-color="#059669"/>
    </linearGradient>
    <linearGradient id="wind" x1="0%" y1="0%" x2="100%" y2="100%">
      <stop offset="0%" stop-color="#6ee7b7"/>
      <stop offset="100%" stop-color="#34d399"/>
    </linearGradient>
  </defs>
  <circle cx="64" cy="64" r="62" fill="url(#bg)"/>
  <circle cx="64" cy="64" r="62" fill="none" stroke="#ffffff" stroke-width="2" opacity="0.3"/>
  <!-- Wind swirls -->
  <path d="M16 44 Q32 38 48 44 Q64 50 80 44 Q96 38 112 44" stroke="#a7f3d0" stroke-width="1.5" fill="none" opacity="0.4" stroke-linecap="round"/>
  <path d="M12 56 Q28 50 44 56 Q60 62 76 56 Q92 50 108 56" stroke="#a7f3d0" stroke-width="1" fill="none" opacity="0.3" stroke-linecap="round"/>
  <!-- Flowing body -->
  <ellipse cx="64" cy="108" rx="26" ry="20" fill="#065f46"/>
  <path d="M48 98 L64 90 L80 98 L82 118 L46 118 Z" fill="#059669" stroke="#34d399" stroke-width="1"/>
  <!-- Flowing cape/wings -->
  <path d="M44 88 Q30 100 24 120 L32 118 Q38 102 46 92" fill="#34d399" opacity="0.4"/>
  <path d="M84 88 Q98 100 104 120 L96 118 Q90 102 82 92" fill="#34d399" opacity="0.4"/>
  <!-- Neck -->
  <rect x="58" y="78" width="12" height="10" rx="3" fill="#d1fae5"/>
  <!-- Head -->
  <circle cx="64" cy="56" r="24" fill="#d1fae5"/>
  <!-- Wind hair - flowing upward -->
  <path d="M42 50 Q38 30 50 22 Q58 18 64 20 Q70 18 78 22 Q90 30 86 50 L84 56 Q72 44 64 42 Q56 44 44 56 Z" fill="#34d399"/>
  <path d="M44 48 Q42 32 52 24 Q58 20 64 22 Q70 20 76 24 Q86 32 84 48 L82 54 Q70 42 64 40 Q58 42 46 54 Z" fill="#6ee7b7"/>
  <!-- Hair wisps -->
  <path d="M40 44 Q34 28 40 18" stroke="#34d399" stroke-width="2" fill="none" stroke-linecap="round"/>
  <path d="M88 44 Q94 28 88 18" stroke="#34d399" stroke-width="2" fill="none" stroke-linecap="round"/>
  <!-- Eyes - ethereal -->
  <ellipse cx="54" cy="54" rx="5" ry="4.5" fill="#ffffff"/>
  <circle cx="55" cy="54" r="3" fill="#065f46"/>
  <circle cx="56" cy="53" r="1.2" fill="#a7f3d0"/>
  <circle cx="56" cy="53" r="0.6" fill="#ffffff"/>
  <ellipse cx="74" cy="54" rx="5" ry="4.5" fill="#ffffff"/>
  <circle cx="75" cy="54" r="3" fill="#065f46"/>
  <circle cx="76" cy="53" r="1.2" fill="#a7f3d0"/>
  <circle cx="76" cy="53" r="0.6" fill="#ffffff"/>
  <!-- Serene eyebrows -->
  <path d="M48 48 L57 47" stroke="#065f46" stroke-width="1.5" stroke-linecap="round"/>
  <path d="M71 47 L80 48" stroke="#065f46" stroke-width="1.5" stroke-linecap="round"/>
  <!-- Gentle smile -->
  <path d="M57 62 Q64 66 71 62" stroke="#065f46" stroke-width="1.5" fill="none" stroke-linecap="round"/>
</svg>
